<svg xmlns="http://www.w3.org/2000/svg" xmlns:xlink="http://www.w3.org/1999/xlink" width="1382" height="198" viewBox="0 0 1382 198"><defs><style>.a,.e,.g,.i{fill:none;}.a,.g{stroke:#599cd3;stroke-linecap:round;stroke-width:2px;}.a{stroke-dasharray:4 8;}.b,.j{fill:#599cd3;}.c,.d,.f{fill:#fff;}.c{font-size:16px;font-family:SolaimanLipi;}.e{stroke:#fff;}.h,.j{stroke:none;}.k{filter:url(#i);}.l{filter:url(#g);}.m{filter:url(#e);}.n{filter:url(#c);}.o{filter:url(#a);}</style><filter id="a" x="0" y="0" width="198" height="198" filterUnits="userSpaceOnUse"><feOffset dy="3" input="SourceAlpha"/><feGaussianBlur stdDeviation="3" result="b"/><feFlood flood-opacity="0.161"/><feComposite operator="in" in2="b"/><feComposite in="SourceGraphic"/></filter><filter id="c" x="300" y="2" width="194" height="194" filterUnits="userSpaceOnUse"><feOffset dy="3" input="SourceAlpha"/><feGaussianBlur stdDeviation="3" result="d"/><feFlood flood-opacity="0.161"/><feComposite operator="in" in2="d"/><feComposite in="SourceGraphic"/></filter><filter id="e" x="596" y="2" width="194" height="194" filterUnits="userSpaceOnUse"><feOffset dy="3" input="SourceAlpha"/><feGaussianBlur stdDeviation="3" result="f"/><feFlood flood-opacity="0.161"/><feComposite operator="in" in2="f"/><feComposite in="SourceGraphic"/></filter><filter id="g" x="893" y="2" width="194" height="194" filterUnits="userSpaceOnUse"><feOffset dy="3" input="SourceAlpha"/><feGaussianBlur stdDeviation="3" result="h"/><feFlood flood-opacity="0.161"/><feComposite operator="in" in2="h"/><feComposite in="SourceGraphic"/></filter><filter id="i" x="1188" y="2" width="194" height="194" filterUnits="userSpaceOnUse"><feOffset dy="3" input="SourceAlpha"/><feGaussianBlur stdDeviation="3" result="j"/><feFlood flood-opacity="0.161"/><feComposite operator="in" in2="j"/><feComposite in="SourceGraphic"/></filter></defs><g transform="translate(-269 -1279)"><line class="a" x2="1186" transform="translate(368.5 1375.5)"/><g transform="translate(-40 -5)"><g class="o" transform="matrix(1, 0, 0, 1, 309, 1284)"><circle class="b" cx="90" cy="90" r="90" transform="translate(9 6)"/></g><text class="c" transform="translate(408 1417)"><tspan x="-51.332" y="0">রেজিস্ট্রেশন করুন</tspan></text><path class="d" d="M560.5,48.5a5.986,5.986,0,0,1-4.486-2.015A5.984,5.984,0,0,1,554,42V11a6,6,0,0,1,6-6V42.5h24V30.347l-6.875,6.963-5.865.59.915-5.539L584,20.384V5a6,6,0,0,1,6,6v3.307L593.86,10.4a1.879,1.879,0,0,1,2.636.193l2.121,2.121a1.88,1.88,0,0,1,.193,2.636L590,24.27V42a5.984,5.984,0,0,1-2.017,4.487A5.985,5.985,0,0,1,583.5,48.5ZM562,26V23h12.779v3Zm0-5V18h16.779v3Zm0-5V13h20v3Zm6.5-5a6,6,0,0,1-6-6H567a5,5,0,1,1,10,0h4.5a6,6,0,0,1-6,6ZM575,5a3,3,0,1,0-6,0Z" transform="translate(-169 1339)"/></g><g transform="translate(-14 17)"><g class="n" transform="matrix(1, 0, 0, 1, 283, 1262)"><circle class="b" cx="88" cy="88" r="88" transform="translate(309 8)"/></g><text class="c" transform="translate(680 1396)"><tspan x="-50.348" y="0">পণ্য লিস্টিং করুন</tspan></text><g transform="translate(25 -16)"><path class="d" d="M4,0H6A0,0,0,0,1,6,0V43a0,0,0,0,1,0,0H4a4,4,0,0,1-4-4V4A4,4,0,0,1,4,0Z" transform="translate(636 1338)"/><path class="d" d="M0,0H2A4,4,0,0,1,6,4V39a4,4,0,0,1-4,4H0a0,0,0,0,1,0,0V0A0,0,0,0,1,0,0Z" transform="translate(668 1338)"/><path class="d" d="M0,0H2A4,4,0,0,1,6,4V33a4,4,0,0,1-4,4H0a0,0,0,0,1,0,0V0A0,0,0,0,1,0,0Z" transform="translate(673.5 1375.5) rotate(90)"/><path class="d" d="M0,0H2A4,4,0,0,1,6,4V33a4,4,0,0,1-4,4H0a0,0,0,0,1,0,0V0A0,0,0,0,1,0,0Z" transform="translate(636.5 1343.5) rotate(-90)"/><path class="d" d="M559,10a5,5,0,1,1,5-5A5.005,5.005,0,0,1,559,10Zm0-8a3,3,0,1,0,3,3A3,3,0,0,0,559,2Z" transform="translate(96 1332)"/><rect class="d" width="14" height="2" transform="translate(652 1354)"/><rect class="d" width="14" height="2" transform="translate(652 1362)"/><rect class="d" width="14" height="2" transform="translate(652 1370)"/><g class="e" transform="translate(644 1352)"><rect class="h" width="6" height="6"/><rect class="i" x="0.5" y="0.5" width="5" height="5"/></g><g class="e" transform="translate(644 1360)"><rect class="h" width="6" height="6"/><rect class="i" x="0.5" y="0.5" width="5" height="5"/></g><g class="e" transform="translate(644 1368)"><rect class="h" width="6" height="6"/><rect class="i" x="0.5" y="0.5" width="5" height="5"/></g><path class="e" d="M102.927,1353.044l2.159,3.119,3.959-5.1" transform="translate(542)"/><path class="e" d="M102.927,1353.044l2.159,3.119,3.959-5.1" transform="translate(542 8)"/></g></g><g transform="translate(92 17)"><g class="m" transform="matrix(1, 0, 0, 1, 177, 1262)"><circle class="b" cx="88" cy="88" r="88" transform="translate(605 8)"/></g><text class="c" transform="translate(870 1395)"><tspan x="-50.313" y="0">অর্ডার গ্রহন করুন</tspan></text><g transform="translate(-118 -13)"><path class="d" d="M12,0A12,12,0,0,1,24,12c0,6.627-5.373,17.813-12,17.813S0,18.627,0,12A12,12,0,0,1,12,0Z" transform="translate(979 1330)"/><path class="d" d="M574,18.053H555.762S546.933,2.635,568.807,0c0,.236,4.431,5.219,5.364,6.265C575.1,5.219,579.534.236,579.534,0c21.875,2.635,13.046,18.053,13.046,18.053Z" transform="translate(417 1360.604)"/><g transform="translate(29 -16)"><g class="f" transform="translate(938.025 1382.025) rotate(-90)"><path class="h" d="M 9.500001907348633 6.5 L 3.500001668930054 6.5 C 3.050781726837158 6.5 2.550251722335815 5.267940044403076 2.550251722335815 3.5 C 2.550251722335815 2.653019905090332 2.671131610870361 1.838940024375916 2.88189172744751 1.266510009765625 C 3.058611631393433 0.7865399718284607 3.289681673049927 0.5 3.500001668930054 0.5 L 9.500001907348633 0.5 C 11.15421199798584 0.5 12.50000190734863 1.845790028572083 12.50000190734863 3.5 C 12.50000190734863 5.154210090637207 11.15421199798584 6.5 9.500001907348633 6.5 Z"/><path class="j" d="M 3.578365325927734 1 C 3.381964683532715 1.210901737213135 3.050251960754395 2.102154731750488 3.050251960754395 3.5 C 3.050251960754395 4.897845268249512 3.381964683532715 5.789098262786865 3.578365325927734 6 L 9.500001907348633 6 C 10.87850189208984 6 12.00000190734863 4.878499984741211 12.00000190734863 3.5 C 12.00000190734863 2.121500015258789 10.87850189208984 1 9.500001907348633 1 L 3.578365325927734 1 M 3.500001907348633 0 L 9.500001907348633 0 C 11.43299198150635 0 13.00000190734863 1.566999912261963 13.00000190734863 3.5 C 13.00000190734863 5.433000087738037 11.43299198150635 7 9.500001907348633 7 L 3.500001907348633 7 C 1.567001342773438 7 1.567001342773438 0 3.500001907348633 0 Z"/></g><g class="f" transform="translate(935 1374)"><path class="h" d="M 14.02136039733887 18.6812744140625 C 11.22710037231445 18.6812744140625 7.84207010269165 17.74098587036133 5.187260150909424 16.22734451293945 C 3.43671989440918 15.22927474975586 0.5 13.09306526184082 0.5 10.00000476837158 C 0.5 6.951364994049072 3.487890005111694 4.839465141296387 5.268929958343506 3.851934909820557 C 7.876999855041504 2.405834913253784 11.22679996490479 1.471434950828552 13.80294990539551 1.471434950828552 C 16.01798057556152 1.471434950828552 17.46150970458984 2.169635057449341 18.3458194732666 3.668694972991943 C 19.13324928283691 5.003524780273438 19.5 7.015345096588135 19.5 10.00000476837158 C 19.5 12.90848541259766 19.35524940490723 14.999924659729 18.63474082946777 16.43769454956055 C 17.8571605682373 17.98932456970215 16.43433952331543 18.6812744140625 14.02136039733887 18.6812744140625 Z"/><path class="j" d="M 13.80294990539551 1.971435546875 C 11.30537986755371 1.971435546875 8.050749778747559 2.881214141845703 5.51138973236084 4.289215087890625 C 3.826530456542969 5.223415374755859 1 7.207585334777832 1 10.00000476837158 C 1 12.84032440185547 3.778610229492188 14.84864521026611 5.434909820556641 15.79298496246338 C 8.018710136413574 17.26613426208496 11.30883979797363 18.1812744140625 14.02136039733887 18.1812744140625 C 16.8402099609375 18.1812744140625 17.7286491394043 17.1297550201416 18.18773078918457 16.21367454528809 C 18.86412048339844 14.86396503448486 19 12.83546447753906 19 10.00000476837158 C 19 7.108465194702148 18.6552906036377 5.177365303039551 17.91517066955566 3.922744750976563 C 17.12985038757324 2.591474533081055 15.82316017150879 1.971435546875 13.80294990539551 1.971435546875 M 13.80294990539551 0.971435546875 C 18.80294990539551 0.971435546875 20 4.477154731750488 20 10.00000476837158 C 20 15.5228443145752 19.54421043395996 19.1812744140625 14.02136039733887 19.1812744140625 C 8.498510360717773 19.1812744140625 0 15.5228443145752 0 10.00000476837158 C 0 4.477154731750488 8.802949905395508 0.971435546875 13.80294990539551 0.971435546875 Z"/></g><g class="f" transform="translate(943 1381)"><path class="h" d="M 9.500001907348633 6.5 L 3.500001668930054 6.5 C 3.050781726837158 6.5 2.550251722335815 5.267940044403076 2.550251722335815 3.5 C 2.550251722335815 2.653019905090332 2.671131610870361 1.838940024375916 2.88189172744751 1.266510009765625 C 3.058611631393433 0.7865399718284607 3.289681673049927 0.5 3.500001668930054 0.5 L 9.500001907348633 0.5 C 11.15421199798584 0.5 12.50000190734863 1.845790028572083 12.50000190734863 3.5 C 12.50000190734863 5.154210090637207 11.15421199798584 6.5 9.500001907348633 6.5 Z"/><path class="j" d="M 3.578365325927734 1 C 3.381964683532715 1.210901737213135 3.050251960754395 2.102154731750488 3.050251960754395 3.5 C 3.050251960754395 4.897845268249512 3.381964683532715 5.789098262786865 3.578365325927734 6 L 9.500001907348633 6 C 10.87850189208984 6 12.00000190734863 4.878499984741211 12.00000190734863 3.5 C 12.00000190734863 2.121500015258789 10.87850189208984 1 9.500001907348633 1 L 3.578365325927734 1 M 3.500001907348633 0 L 9.500001907348633 0 C 11.43299198150635 0 13.00000190734863 1.566999912261963 13.00000190734863 3.5 C 13.00000190734863 5.433000087738037 11.43299198150635 7 9.500001907348633 7 L 3.500001907348633 7 C 1.567001342773438 7 1.567001342773438 0 3.500001907348633 0 Z"/></g><rect class="d" width="6" height="5" transform="translate(942 1382)"/></g></g></g><g transform="translate(203 17)"><g class="l" transform="matrix(1, 0, 0, 1, 66, 1262)"><circle class="b" cx="88" cy="88" r="88" transform="translate(902 8)"/></g><text class="c" transform="translate(1056 1389)"><tspan x="-59.145" y="0">পণ্য ডেলিভারী করুন</tspan></text><path class="d" d="M596,30H574a5,5,0,0,1-10,0H554V24h41V7h13.007L615,18.661v5.747h0V30h-9a5,5,0,0,1-10,0Zm3,0a2,2,0,1,0,4,0h-4Zm-32,0a2,2,0,0,0,4,0h-4Zm32.711-14.155,11.7,3.977,1.4-1.716-5.458-9.2h-7.642ZM555,23V2a2,2,0,0,1,2-2h35a2,2,0,0,1,2,2V23Z" transform="translate(472 1322)"/></g><g transform="translate(100 17)"><g class="k" transform="matrix(1, 0, 0, 1, 169, 1262)"><circle class="b" cx="88" cy="88" r="88" transform="translate(1197 8)"/></g><text class="c" transform="translate(1454 1393.521)"><tspan x="-45.32" y="0">মূল্য গ্রহন করুন</tspan></text><g transform="translate(-141.871 -18.48)"><path class="d" d="M978.981,1375.5s22.8,7.378,40.851,0c.132-.13,4.2-17.151-11.477-29.406,0,0,2.733-1.455,1.775-3.23s-.746-.34-3.514-.6c.387-.895,4.543-5.679,5.04-6.388s2.378-4.253-3.025-3.2-4.618,4.05-9.362,4.05-9.614-4.05-9.614-4.05-4.481.791-1.45,4.744,5.42,4.843,5.42,4.843-3.674.4-3.971,1.746,2.729,2.087,2.729,2.087-7.769,3.316-11.031,10.564S978.981,1375.5,978.981,1375.5Z" transform="translate(596 3)"/><path class="b" d="M3.342-14.7a7.632,7.632,0,0,1-.416,2.9l-.832,1.489A5.976,5.976,0,0,1,.109-8.089q-.55.4-1.026.7a3.357,3.357,0,0,1-.932.423L-3.111-6.8a1.748,1.748,0,0,1-.9-.188,4.017,4.017,0,0,1-.751-.463q-.376-.288-.832-.691A3.2,3.2,0,0,1-6.478-9.7l-.094-2.67V-15.79H-8.021L-9.55-17.614h3.112V-21.3a1.259,1.259,0,0,0-.282-.9,1.641,1.641,0,0,0-.885-.416,1.679,1.679,0,0,0-.456.054.622.622,0,0,0-.268.134l-.322-.657a3.113,3.113,0,0,1-.208-.684.877.877,0,0,1,.007-.429,2.434,2.434,0,0,1,.282-.315,2.678,2.678,0,0,1,.416-.322,2.579,2.579,0,0,1,.523-.255,1.865,1.865,0,0,1,.631-.1l.429.067a3.019,3.019,0,0,1,1.328,1.194,4.1,4.1,0,0,1,.537,2.227v1.167l.054,1.382v.657a3.949,3.949,0,0,1-.027.516,1.729,1.729,0,0,1-.054.275h.9l1.543,1.918H-4.653l-.054,5.245a1.848,1.848,0,0,0,.443,1.207,1.688,1.688,0,0,0,1.181.4,2.509,2.509,0,0,0,.771-.127A3.216,3.216,0,0,0-1.474-9.5a4.071,4.071,0,0,0,.832-.832,9.989,9.989,0,0,0,.724-1.113L.672-12.6l.094-.993-.389.027A1.945,1.945,0,0,1-1.8-15.79l.04-.362a3.171,3.171,0,0,1,.235-1.073,2.043,2.043,0,0,1,.483-.7,1.794,1.794,0,0,1,.664-.382,2.571,2.571,0,0,1,.792-.121q.228,0,.443.02a1.33,1.33,0,0,1,.4.1A3.861,3.861,0,0,1,2.9-16.648l.349.885A3.662,3.662,0,0,1,3.342-14.7Z" transform="translate(1598.704 1380.438)"/></g></g><path class="g" d="M10.915,1363.582l11.291,11.291-11.291,11.291" transform="translate(555 1)"/><path class="g" d="M10.915,1363.582l11.291,11.291-11.291,11.291" transform="translate(1147.085 1)"/><path class="g" d="M10.915,1363.582l11.291,11.291-11.291,11.291" transform="translate(851 1)"/><path class="g" d="M10.915,1363.582l11.291,11.291-11.291,11.291" transform="translate(1443.085 1)"/></g></svg>